<svg xmlns="http://www.w3.org/2000/svg" viewBox="0 0 64 64" role="img" aria-label="Blue Cat">
  <defs>
    <linearGradient id="g" x1="0" y1="0" x2="1" y2="1">
      <stop offset="0%" stop-color="#7ec8ff"/>
      <stop offset="100%" stop-color="#3a8eef"/>
    </linearGradient>
  </defs>
  <rect width="64" height="64" rx="16" fill="url(#g)"/>
  <path d="M14 28 L10 10 L26 20 Z" fill="#5eb0ff" stroke="#1a4a8a" stroke-width="1.5"/>
  <path d="M50 28 L54 10 L38 20 Z" fill="#5eb0ff" stroke="#1a4a8a" stroke-width="1.5"/>
  <path d="M15 24 L13 14 L22 20 Z" fill="#ffb6c8"/>
  <path d="M49 24 L51 14 L42 20 Z" fill="#ffb6c8"/>
  <ellipse cx="32" cy="36" rx="20" ry="18" fill="#8cc8ff" stroke="#1a4a8a" stroke-width="1.5"/>
  <ellipse cx="24" cy="34" rx="4.5" ry="5.5" fill="#fff"/>
  <ellipse cx="40" cy="34" rx="4.5" ry="5.5" fill="#fff"/>
  <circle cx="25" cy="35" r="2.2" fill="#1a2a4a"/>
  <circle cx="41" cy="35" r="2.2" fill="#1a2a4a"/>
  <circle cx="26" cy="34" r="0.8" fill="#fff"/>
  <circle cx="42" cy="34" r="0.8" fill="#fff"/>
  <ellipse cx="32" cy="41" rx="2.2" ry="1.6" fill="#ff8fab"/>
  <path d="M32 42.5 Q28 46 24 44" fill="none" stroke="#1a4a8a" stroke-width="1.2" stroke-linecap="round"/>
  <path d="M32 42.5 Q36 46 40 44" fill="none" stroke="#1a4a8a" stroke-width="1.2" stroke-linecap="round"/>
  <path d="M18 40 H10 M18 43 H11 M46 40 H54 M46 43 H53" stroke="#1a4a8a" stroke-width="1" stroke-linecap="round"/>
</svg>
