<svg xmlns="http://www.w3.org/2000/svg" viewBox="0 0 128 128">
  <defs>
    <radialGradient id="g" cx="40%" cy="35%" r="65%">
      <stop offset="0%" stop-color="#5ec8ff"/>
      <stop offset="100%" stop-color="#1a6fd4"/>
    </radialGradient>
  </defs>
  <!-- spines -->
  <path d="M34 48 C18 28 22 12 40 20 C48 8 62 4 74 14 C86 2 104 8 108 28 C122 30 124 48 112 58 L100 52 Z" fill="#0b4ea2"/>
  <path d="M30 70 C12 68 8 50 22 46 C14 38 20 28 32 34" fill="#0b4ea2"/>
  <!-- body -->
  <ellipse cx="64" cy="72" rx="34" ry="38" fill="url(#g)"/>
  <!-- belly -->
  <ellipse cx="64" cy="86" rx="20" ry="18" fill="#f5d7a1"/>
  <!-- eyes white -->
  <ellipse cx="54" cy="58" rx="11" ry="14" fill="#fff"/>
  <ellipse cx="74" cy="58" rx="11" ry="14" fill="#fff"/>
  <!-- pupils -->
  <ellipse cx="57" cy="60" rx="4" ry="6" fill="#1a1a2e"/>
  <ellipse cx="77" cy="60" rx="4" ry="6" fill="#1a1a2e"/>
  <!-- nose -->
  <ellipse cx="64" cy="72" rx="5" ry="3.5" fill="#111"/>
  <!-- mouth -->
  <path d="M54 78 Q64 86 74 78" fill="none" stroke="#333" stroke-width="2" stroke-linecap="round"/>
  <!-- shoes -->
  <ellipse cx="48" cy="112" rx="14" ry="8" fill="#e53935"/>
  <ellipse cx="80" cy="112" rx="14" ry="8" fill="#e53935"/>
  <rect x="38" y="108" width="20" height="5" rx="2" fill="#fff"/>
  <rect x="70" y="108" width="20" height="5" rx="2" fill="#fff"/>
  <!-- gloves hint -->
  <circle cx="32" cy="88" r="8" fill="#fff"/>
  <circle cx="96" cy="88" r="8" fill="#fff"/>
</svg>
